<?xml version="1.0" encoding="utf-8"?>
<!-- Generator: Adobe Illustrator 16.0.0, SVG Export Plug-In . SVG Version: 6.00 Build 0)  -->
<!DOCTYPE svg PUBLIC "-//W3C//DTD SVG 1.1//EN" "http://www.w3.org/Graphics/SVG/1.1/DTD/svg11.dtd">
<svg version="1.1" xmlns="http://www.w3.org/2000/svg" xmlns:xlink="http://www.w3.org/1999/xlink" x="0px" y="0px" width="300px"
	 height="300px" viewBox="0 0 300 300" enable-background="new 0 0 300 300" xml:space="preserve">
<g id="Other">
	<g id="Other_1_">
		<g>
			<path fill="none" d="M138.354,34.882c0-2.245-0.1-2.971-1.584-3.104l-1.584-0.132c-0.264-0.132-0.297-0.594-0.033-0.727
				c2.771-0.495,4.588-1.354,5.445-1.914c0.133,0,0.265,0.065,0.33,0.165c-0.065,0.594-0.131,2.244-0.131,4.125v12.806
				c0,2.541,0.065,3.103,1.418,3.201l1.387,0.099c0.197,0.198,0.164,0.727-0.066,0.825c-1.287-0.065-2.771-0.099-3.928-0.099
				c-1.188,0-2.674,0.033-3.961,0.099c-0.23-0.099-0.264-0.627-0.065-0.825l1.353-0.099c1.387-0.099,1.42-0.66,1.42-3.201V34.882
				L138.354,34.882z"/>
		</g>
		<g>
			<path fill="none" d="M73.938,115.436c1.519,0,2.509-0.198,3.103-0.726c0.628-0.562,0.859-0.99,1.058-1.354c0.23-0.099,0.594,0,0.727,0.198
				c-0.43,1.65-1.023,3.367-1.52,4.027c-1.353-0.066-2.738-0.1-4.256-0.1h-4.787c-1.849,0-2.938,0.033-3.662,0.1
				c-0.066-0.033-0.232-0.165-0.232-0.43c0-0.099,0.166-0.23,0.363-0.362c1.519-0.99,2.607-2.112,5.051-4.753
				c2.178-2.344,4.719-5.545,4.719-9.076c0-3.003-1.451-4.819-4.125-4.819c-1.98,0-3.4,1.354-4.291,3.3
				c-0.297,0.165-0.792,0-0.792-0.429c1.056-2.905,3.663-4.654,6.634-4.654c3.301,0,5.445,2.211,5.445,5.38
				c0,2.047-0.957,4.291-3.531,7.262l-2.013,2.311c-2.706,3.104-3.003,3.63-3.003,3.829c0,0.231,0.164,0.297,1.021,0.297
				L73.938,115.436L73.938,115.436z"/>
		</g>
	</g>
</g>
<g id="CenterL1">
	<path id="L1-Path" opacity="0.7" fill="#0000FF" d="M124.65,97.093c5.392-2.967,18.647-9.128,23.141-11.866
		c-0.448-0.228-0.448-0.228-2.022-0.228c-17.748,0-31.678-14.148-33.025-28.524l2.021-0.913c4.494,6.162,14.154,9.128,27.635,9.128
		c10.109,0,19.322-2.737,24.488-2.737c14.828,0,23.592,8.215,23.592,17.343c0,10.041-12.357,10.041-22.242,10.041
		c-9.438,0-33.027,6.846-42.014,10.269L124.65,97.093z"/>
	<g id="arrow_1_">
		<g>
			<path fill="none" stroke="#FFFFFF" stroke-width="0.5" stroke-miterlimit="10" d="M128.167,68.782
				c15.751,7.038,33.879,4.696,42.412,9.415"/>
			<g>
				<path fill="#FFFFFF" d="M173,80c-1.463-0.394-3.419-0.682-4.861-0.539l2.079-1.439l0.678-2.436
					C171.233,76.995,172.147,78.748,173,80z"/>
			</g>
		</g>
	</g>
</g>
<g id="CenterL2">
	<path id="L2-Path" opacity="0.7" fill="#ED1C24" d="M183.731,204.116c0,10.496,1.349,13.69,8.313,13.69
		c4.044,0,10.335-0.456,15.054-1.369c2.695-0.684,5.842-2.053,7.64-2.053c5.392,0,20.894,8.898,20.894,17.342
		c0,9.355-9.211,13.92-36.396,13.92c-31.387,0-41.563-13.751-41.563-31.719c0-2.282,0.674-13.008,0.674-15.289
		c0-10.953-2.021-14.833-7.862-14.833c-21.794,0-37.97,25.786-49.652,48.149c-3.819,7.073-9.886,12.321-17.974,12.321
		c-6.74,0-13.031-1.598-13.031-14.147c0-7.529,2.021-15.289,10.109-22.591c51-46.323,82.455-81.922,82.455-83.063
		c0-0.457-0.449-0.685-1.123-0.685c-4.494,0-33.926,10.497-43.812,16.43c-4.719,2.738-8.089,7.758-13.03,7.758
		c-8.313,0-19.547-6.846-19.547-17.114s5.842-18.712,18.648-26.015l1.797,2.054c-2.473,3.194-3.596,5.934-3.596,7.759
		c0,3.879,3.82,5.477,10.111,5.477c9.885,0,39.316-4.563,49.428-8.215c3.595-1.369,8.313-7.074,12.58-7.074
		c7.863,0,25.612,9.584,25.612,19.625c0,6.618-7.639,9.128-12.132,11.638c-14.379,8.216-28.982,16.888-54.37,45.867l1.123,0.229
		c13.031-8.672,22.242-10.498,29.207-10.498c14.379,0,20.445,11.182,20.445,25.102v7.305H183.731z"/>
	<g id="arrow_2_">
		<g>
			<path fill="none" stroke="#FFFFFF" stroke-width="0.5" stroke-miterlimit="10" d="M106,131.5c13.75-1.625,28.6-6.12,41.022-9.183
				c67.472-16.635,19.232,15.051,3.029,29.844"/>
			<g>
				<path fill="#FFFFFF" d="M147.875,154.25c0.67-1.358,1.334-3.221,1.474-4.663l1.007,2.319l2.258,1.138
					C151.167,153.102,149.269,153.657,147.875,154.25z"/>
			</g>
		</g>
	</g>
	<g id="arrow_4_">
		<g>
			<path fill="none" stroke="#FFFFFF" stroke-width="0.5" stroke-miterlimit="10" d="M111.667,190.749
				c-26.601,32.946-71.604,79.2,13.585-1.033"/>
			<g>
				<path fill="#FFFFFF" d="M127.449,187.646c-0.684,1.352-1.366,3.208-1.521,4.648l-0.984-2.329l-2.246-1.16
					C124.146,188.762,126.05,188.224,127.449,187.646z"/>
			</g>
		</g>
	</g>
	<g id="arrow_5_">
		<g>
			<path fill="none" stroke="#FFFFFF" stroke-width="0.5" stroke-miterlimit="10" d="M142,181.5c2.567-0.301,34-13,30,10.75
				c-4.979,29.564,7.157,38.738,29.734,39.894"/>
			<g>
				<path fill="#FFFFFF" d="M204.75,232.25c-1.441,0.465-3.24,1.287-4.372,2.191l0.962-2.339l-0.757-2.412
					C201.633,230.688,203.354,231.663,204.75,232.25z"/>
			</g>
		</g>
	</g>
</g>
</svg>
