<?xml version="1.0" encoding="utf-8"?>
<!-- Generator: Adobe Illustrator 16.0.0, SVG Export Plug-In . SVG Version: 6.00 Build 0)  -->
<!DOCTYPE svg PUBLIC "-//W3C//DTD SVG 1.1//EN" "http://www.w3.org/Graphics/SVG/1.1/DTD/svg11.dtd">
<svg version="1.1" xmlns="http://www.w3.org/2000/svg" xmlns:xlink="http://www.w3.org/1999/xlink" x="0px" y="0px" width="300px"
	 height="300px" viewBox="0 0 300 300" enable-background="new 0 0 300 300" xml:space="preserve">
<g id="Other">
	<g>
		<path fill="none" d="M42.011,67.882c0-2.245-0.099-2.971-1.584-3.103l-1.584-0.132c-0.264-0.132-0.297-0.594-0.033-0.727
			c2.772-0.495,4.588-1.353,5.446-1.914c0.132,0,0.264,0.066,0.33,0.165c-0.066,0.594-0.132,2.244-0.132,4.125v12.806
			c0,2.541,0.066,3.102,1.419,3.201l1.386,0.099c0.198,0.198,0.165,0.726-0.066,0.825c-1.287-0.066-2.772-0.099-3.928-0.099
			c-1.188,0-2.673,0.033-3.96,0.099c-0.231-0.099-0.264-0.627-0.066-0.825l1.353-0.099c1.386-0.099,1.419-0.66,1.419-3.201V67.882z"
			/>
	</g>
	<g>
		<path fill="none" d="M218.846,85.417c1.518,0,2.508-0.198,3.102-0.726c0.628-0.561,0.859-0.99,1.057-1.353c0.231-0.099,0.594,0,0.727,0.198
			c-0.43,1.65-1.023,3.367-1.519,4.027c-1.353-0.066-2.739-0.099-4.257-0.099h-4.787c-1.848,0-2.937,0.033-3.662,0.099
			c-0.066-0.033-0.232-0.165-0.232-0.429c0-0.099,0.166-0.231,0.363-0.363c1.519-0.99,2.607-2.112,5.051-4.753
			c2.178-2.343,4.719-5.545,4.719-9.076c0-3.003-1.451-4.819-4.125-4.819c-1.98,0-3.4,1.353-4.291,3.3
			c-0.297,0.165-0.792,0-0.792-0.429c1.056-2.905,3.663-4.654,6.634-4.654c3.301,0,5.445,2.211,5.445,5.38
			c0,2.046-0.957,4.291-3.531,7.261l-2.013,2.311c-2.706,3.103-3.003,3.63-3.003,3.829c0,0.231,0.164,0.297,1.022,0.297H218.846z"/>
	</g>
</g>
<g id="CenterL1">
	<path id="L1-Path" opacity="0.7" fill="#0000FF" d="M60.156,73.699c1.962-0.872,4.578-1.09,5.668-1.09
		c25.724,0,38.369,18.094,38.369,30.303c0,6.104-1.744,7.848-3.053,10.682c-5.231,11.336-9.592,20.493-9.592,45.127
		c0,5.23,3.053,25.506,15.696,25.506c2.834,0,5.45-1.09,11.118-9.156c6.977-9.811,16.35-24.853,23.326-36.407l2.616,1.526
		c-6.976,20.056-16.351,49.705-16.351,59.296c0,1.525,0.873,2.615,2.18,4.578c2.617,3.053,5.015,7.848,5.015,10.682
		c0,9.375-6.104,12.645-14.606,12.645c-17.658,0-51.884-20.057-51.884-85.021c0-11.336,1.744-33.572,1.744-41.856
		c0-4.142,0-20.928-10.246-25.942V73.699z"/>
	<g id="arrow_3_">
		<g>
			<path fill="none" stroke="#FFFFFF" stroke-width="0.5" stroke-miterlimit="10" d="M83.333,95.13
				c-2.677,4.658-8.079,50.042-0.375,70.949c5.375,14.588,22.106,37.534,27.875,45.088c3.753,4.915,7.249-20.835,11.229-29.779"/>
			<g>
				<path fill="#FFFFFF" d="M123.667,178.834c-0.29,1.486-0.441,3.459-0.197,4.887l-1.582-1.974l-2.477-0.504
					C120.792,180.807,122.478,179.771,123.667,178.834z"/>
			</g>
		</g>
	</g>
</g>
<g id="CenterL2">
	<path id="L2-Path" opacity="0.7" fill="#ED1C24" d="M174.62,95.147c52.975-0.872,74.557,30.521,74.557,54.282
		c0,13.08-7.194,23.98-18.967,23.98c-6.758,0-13.297-3.706-13.733-10.246c-2.181-32.918-15.261-61.913-42.511-63.656L174.62,95.147z
		"/>
	<g id="arrow_1_">
		<g>
			<path fill="none" stroke="#FFFFFF" stroke-width="0.5" stroke-miterlimit="10" d="M189.167,99.782
				c18.896,4.088,36.856,20.62,44.251,56.257"/>
			<g>
				<path fill="#FFFFFF" d="M234,159c-0.809-1.28-2.053-2.818-3.21-3.689l2.504,0.35l2.148-1.333
					C234.736,155.593,234.222,157.502,234,159z"/>
			</g>
		</g>
	</g>
</g>
</svg>
