<?xml version="1.0" encoding="utf-8"?>
<!-- Generator: Adobe Illustrator 16.0.0, SVG Export Plug-In . SVG Version: 6.00 Build 0)  -->
<!DOCTYPE svg PUBLIC "-//W3C//DTD SVG 1.1//EN" "http://www.w3.org/Graphics/SVG/1.1/DTD/svg11.dtd">
<svg version="1.1" xmlns="http://www.w3.org/2000/svg" xmlns:xlink="http://www.w3.org/1999/xlink" x="0px" y="0px" width="300px"
	 height="300px" viewBox="0 0 300 300" enable-background="new 0 0 300 300" xml:space="preserve">
<g id="Other">
	<g id="Other_1_">
		<g>
			<path fill="none" d="M125.558,37.415c0-2.245-0.1-2.971-1.584-3.104l-1.584-0.132c-0.265-0.132-0.298-0.594-0.033-0.727
				c2.771-0.495,4.588-1.354,5.445-1.914c0.133,0,0.264,0.065,0.33,0.165c-0.066,0.594-0.132,2.244-0.132,4.125v12.808
				c0,2.541,0.065,3.103,1.419,3.201l1.387,0.099c0.197,0.198,0.164,0.727-0.066,0.825c-1.287-0.065-2.772-0.099-3.928-0.099
				c-1.188,0-2.674,0.033-3.961,0.099c-0.23-0.099-0.264-0.627-0.065-0.825l1.353-0.099c1.387-0.099,1.42-0.66,1.42-3.201V37.415z"
				/>
		</g>
		<g>
			<path fill="none" d="M80.778,124.057c1.518,0,2.508-0.197,3.102-0.726c0.628-0.562,0.859-0.99,1.057-1.354c0.231-0.099,0.595,0,0.728,0.198
				c-0.431,1.65-1.022,3.367-1.519,4.027c-1.354-0.066-2.739-0.1-4.258-0.1h-4.787c-1.848,0-2.937,0.033-3.662,0.1
				c-0.065-0.033-0.231-0.165-0.231-0.429c0-0.1,0.166-0.231,0.362-0.363c1.52-0.99,2.607-2.112,5.052-4.753
				c2.178-2.344,4.719-5.545,4.719-9.076c0-3.003-1.45-4.819-4.125-4.819c-1.979,0-3.399,1.354-4.291,3.3
				c-0.297,0.165-0.792,0-0.792-0.429c1.057-2.905,3.663-4.654,6.635-4.654c3.301,0,5.444,2.212,5.444,5.381
				c0,2.046-0.957,4.291-3.53,7.261l-2.014,2.311c-2.706,3.104-3.003,3.63-3.003,3.829c0,0.231,0.164,0.297,1.022,0.297
				L80.778,124.057L80.778,124.057z"/>
		</g>
	</g>
</g>
<g id="CenterL1">
	<path id="L1-Path" opacity="0.7" fill="#0000FF" d="M134.665,99.936c3.398-1.6,17.6-9.399,17.6-9.8c0-0.2-0.199-0.399-0.601-0.6
		c-4.601-1.601-15.601-0.601-22.399-5.2c-7.8-5.2-12.398-13-11.6-22.6l1.2-1c1.399,2.6,6.6,8.6,23.6,8.6c6.8,0,14-0.8,19.8-0.8
		c13.199,0,26.399,6.8,26.399,18.399c0,6.601-6.2,10-13.601,10l-8.199-0.199c-7.6,0-17,1-31.6,5.199L134.665,99.936z"/>
	<g id="arrow_1_">
		<g>
			<path fill="none" stroke="#FFFFFF" stroke-width="0.5" stroke-miterlimit="10" d="M127.648,72.341
				c10.025,2.751,26.411,13.407,43.835,14.558"/>
			<g>
				<path fill="#FFFFFF" d="M174.5,87c-1.439,0.472-3.233,1.303-4.361,2.212l0.95-2.343l-0.769-2.408
					C171.375,85.454,173.102,86.42,174.5,87z"/>
			</g>
		</g>
	</g>
</g>
<g id="CenterL2">
	<path id="L2-Path" opacity="0.7" fill="#ED1C24" d="M102.665,125.535c-0.2,0.6-0.2,1.399-0.2,2c0,5.399,5,8.399,10,8.399
		c11.8,0,34-17.6,57.999-17.6c30.801,0,37.6,20.8,37.6,46.199c0,34.199-27.998,65.999-88.998,76.599l-1.399-2.6
		c47.999-20,60.399-53.601,60.399-78.199c0-18.6-2-30.199-13.601-30.199c-13,0-28.2,12.2-34,24.399c-2.6,5.399-5.2,9.2-13.2,9.2
		c-11.199,0-23.199-13.4-23.199-23.4c0-7,1.801-13,6.801-16.2L102.665,125.535z"/>
	<g id="arrow_2_">
		<g>
			<path fill="none" stroke="#FFFFFF" stroke-width="0.5" stroke-miterlimit="10" d="M116,150
				c83.178-76.899,112.427,49.481,17.778,84.489"/>
			<g>
				<path fill="#FFFFFF" d="M130.935,235.5c1.154-0.98,2.502-2.428,3.203-3.696l0.005,2.528l1.622,1.94
					C134.412,235.751,132.449,235.509,130.935,235.5z"/>
			</g>
		</g>
	</g>
</g>
</svg>
