<?xml version="1.0" encoding="utf-8"?>
<!-- Generator: Adobe Illustrator 16.0.0, SVG Export Plug-In . SVG Version: 6.00 Build 0)  -->
<!DOCTYPE svg PUBLIC "-//W3C//DTD SVG 1.1//EN" "http://www.w3.org/Graphics/SVG/1.1/DTD/svg11.dtd">
<svg version="1.1" id="レイヤー_1" xmlns="http://www.w3.org/2000/svg" xmlns:xlink="http://www.w3.org/1999/xlink" x="0px"
	 y="0px" width="800px" height="250px" viewBox="0 0 800 250" enable-background="new 0 0 800 250" xml:space="preserve">
<g>
	<path fill="#FFFFFF" d="M400.152,63.368c0-4.981-0.092-5.74-2.984-5.978l-1.146-0.094c-0.275-0.189-0.185-1.043,0.091-1.187
		c2.568,0.096,4.131,0.143,5.965,0.143c1.792,0,3.352-0.047,5.646-0.143c0.273,0.143,0.367,0.997,0.092,1.187l-1.102,0.094
		c-2.707,0.237-2.801,0.997-2.801,5.978v16.508c0,2.988,0.14,4.222,0.965,5.123c0.504,0.521,1.377,1.091,5.003,1.091
		c3.9,0,4.864-0.19,5.599-0.617c0.916-0.57,2.108-2.277,3.029-4.696c0.274-0.237,1.148-0.047,1.148,0.285
		c0,0.521-1.286,5.36-1.929,6.641c-2.342-0.095-6.7-0.143-11.427-0.143h-4.225c-1.926,0-3.396,0.048-5.965,0.143
		c-0.275-0.143-0.366-0.901-0.091-1.187l1.377-0.142c2.661-0.284,2.753-0.949,2.753-5.929V63.368z"/>
	<path fill="#FFFFFF" d="M425.616,75.417c-1.193,0-1.238,0.095-1.238,1.281c0,4.791,2.707,8.871,7.618,8.871
		c1.515,0,2.799-0.474,4.224-2.324c0.457-0.143,0.777,0.143,0.825,0.569c-1.516,3.226-4.819,4.412-7.205,4.412
		c-2.984,0-5.326-1.328-6.654-3.13c-1.377-1.85-1.93-4.08-1.93-6.167c0-5.834,3.718-10.72,9.228-10.72
		c3.944,0,6.514,2.799,6.514,5.645c0,0.665-0.091,1.043-0.182,1.233c-0.139,0.284-0.779,0.332-2.709,0.332H425.616z M428.463,73.994
		c3.395,0,4.406-0.189,4.771-0.474c0.139-0.095,0.276-0.284,0.276-0.901c0-1.329-0.873-2.988-3.535-2.988
		c-2.705,0-5.047,2.562-5.093,4.126c0,0.095,0,0.237,0.32,0.237H428.463z"/>
	<path fill="#FFFFFF" d="M446.082,70.863c-0.782,0-0.828,0.143-0.828,1.138v8.871c0,2.752,0.321,5.266,3.35,5.266
		c0.462,0,0.874-0.095,1.24-0.237c0.414-0.143,1.009-0.664,1.148-0.664c0.367,0,0.55,0.521,0.459,0.807
		c-0.826,0.996-2.479,2.182-4.819,2.182c-3.947,0-4.773-2.276-4.773-5.123V72.239c0-1.281-0.047-1.375-0.965-1.375h-1.282
		c-0.277-0.189-0.322-0.712-0.139-0.996c1.33-0.427,2.479-1.044,2.938-1.472c0.596-0.569,1.469-1.85,1.928-2.798
		c0.228-0.095,0.779-0.095,0.962,0.237v2.135c0,0.853,0.048,0.9,0.827,0.9h5.095c0.551,0.427,0.458,1.708,0.046,1.993H446.082z"/>
	<path fill="#FFFFFF" d="M460.169,58.909c0,3.273-2.479,5.55-5.371,6.452c-0.367-0.19-0.552-0.664-0.321-0.996
		c1.7-0.806,3.489-2.135,3.489-4.08c0-1.803-1.422-2.609-2.297-2.657c-0.641-0.047-1.238-0.427-1.238-1.328
		c0-0.711,0.412-1.946,2.203-1.946C458.515,54.354,460.169,56.443,460.169,58.909z"/>
	<path fill="#FFFFFF" d="M475.263,69.06c0.413,1.043,0.734,2.563,0.734,3.844c-0.183,0.332-0.87,0.426-1.102,0.141
		c-0.778-2.087-2.156-3.462-4.038-3.462c-1.79,0-2.936,1.186-2.936,2.894c0,1.945,1.929,2.989,3.533,3.937
		c2.43,1.423,4.681,3.036,4.681,6.405c0,3.604-3.212,5.407-6.607,5.407c-2.157,0-3.766-0.474-4.911-1.422
		c-0.367-0.902-0.642-3.226-0.551-4.791c0.229-0.285,0.826-0.333,1.056-0.048c0.78,2.61,2.249,4.886,4.864,4.886
		c1.651,0,3.075-0.996,3.075-3.036c0-2.182-1.836-3.367-3.533-4.364c-2.664-1.564-4.545-3.226-4.545-5.835
		c0-3.462,2.755-5.407,6.242-5.407C473.152,68.207,474.851,68.681,475.263,69.06z"/>
	<path fill="#FFFFFF" d="M494.854,63.368c0-4.981-0.092-5.74-2.982-5.978l-1.146-0.094c-0.276-0.189-0.186-1.043,0.091-1.187
		c2.57,0.096,4.129,0.143,5.966,0.143c1.79,0,3.35-0.047,5.646-0.143c0.274,0.143,0.367,0.997,0.091,1.187l-1.101,0.094
		c-2.706,0.237-2.8,0.997-2.8,5.978v16.508c0,2.988,0.139,4.222,0.965,5.123c0.504,0.521,1.375,1.091,5.001,1.091
		c3.901,0,4.865-0.19,5.599-0.617c0.919-0.57,2.11-2.277,3.029-4.696c0.275-0.237,1.146-0.047,1.146,0.285
		c0,0.521-1.283,5.36-1.927,6.641c-2.342-0.095-6.699-0.143-11.427-0.143h-4.223c-1.928,0-3.396,0.048-5.966,0.143
		c-0.276-0.143-0.367-0.901-0.091-1.187l1.377-0.142c2.66-0.284,2.752-0.949,2.752-5.929V63.368z"/>
	<path fill="#FFFFFF" d="M520.319,75.417c-1.194,0-1.239,0.095-1.239,1.281c0,4.791,2.708,8.871,7.62,8.871
		c1.513,0,2.797-0.474,4.22-2.324c0.458-0.143,0.78,0.143,0.826,0.569c-1.514,3.226-4.818,4.412-7.205,4.412
		c-2.982,0-5.325-1.328-6.654-3.13c-1.377-1.85-1.928-4.08-1.928-6.167c0-5.834,3.717-10.72,9.227-10.72
		c3.945,0,6.515,2.799,6.515,5.645c0,0.665-0.091,1.043-0.183,1.233c-0.14,0.284-0.78,0.332-2.709,0.332H520.319z M523.164,73.994
		c3.396,0,4.406-0.189,4.773-0.474c0.139-0.095,0.275-0.284,0.275-0.901c0-1.329-0.872-2.988-3.534-2.988
		c-2.707,0-5.049,2.562-5.094,4.126c0,0.095,0,0.237,0.321,0.237H523.164z"/>
	<path fill="#FFFFFF" d="M543.401,77.741c0.688-0.237,0.779-0.664,0.779-1.375l0.046-2.182c0.047-1.755-0.506-4.127-3.351-4.127
		c-1.285,0-2.845,0.664-2.938,2.135c-0.044,0.759-0.092,1.328-0.457,1.613c-0.688,0.569-1.929,0.901-2.618,0.901
		c-0.412,0-0.641-0.238-0.641-0.664c0-2.467,5.186-5.835,8.535-5.835c3.306,0,4.91,1.993,4.774,5.55l-0.277,8.254
		c-0.092,2.182,0.323,4.126,2.112,4.126c0.458,0,0.871-0.143,1.146-0.284c0.231-0.143,0.459-0.333,0.599-0.333
		c0.184,0,0.32,0.285,0.32,0.617c0,0.237-1.606,2.087-3.854,2.087c-1.104,0-2.203-0.426-2.984-1.47
		c-0.185-0.285-0.459-0.664-0.733-0.664c-0.321,0-0.873,0.426-1.791,0.948c-1.01,0.57-2.021,1.186-3.305,1.186
		c-1.33,0-2.433-0.379-3.212-1.09c-0.872-0.806-1.423-1.992-1.423-3.321c0-1.85,0.873-2.941,3.809-4.031L543.401,77.741z
		 M540.557,86.091c0.916,0,2.339-0.711,2.8-1.187c0.549-0.569,0.549-1.233,0.595-2.229l0.091-2.798c0-0.522-0.182-0.617-0.458-0.617
		s-1.057,0.189-1.882,0.475c-2.706,0.949-4.039,1.661-4.039,3.51C537.663,84.05,538.216,86.091,540.557,86.091z"/>
	<path fill="#FFFFFF" d="M555.557,73.947c0-1.851,0-2.088-1.237-2.941l-0.414-0.285c-0.185-0.189-0.185-0.711,0.047-0.853
		c1.056-0.38,3.485-1.614,4.634-2.325c0.23,0.047,0.37,0.143,0.37,0.333v2.75c0,0.238,0.044,0.38,0.136,0.427
		c1.605-1.375,3.351-2.846,5.049-2.846c1.146,0,2.063,0.758,2.063,1.896c0,1.566-1.237,2.183-1.973,2.183
		c-0.458,0-0.688-0.143-1.01-0.332c-0.688-0.475-1.377-0.759-2.019-0.759c-0.734,0-1.287,0.428-1.652,0.949
		c-0.459,0.664-0.595,2.04-0.595,3.653v6.45c0,3.416,0.09,3.984,1.833,4.127l1.653,0.142c0.32,0.237,0.229,1.043-0.093,1.187
		c-2.156-0.095-3.488-0.143-5.095-0.143c-1.651,0-3.027,0.048-4.222,0.143c-0.322-0.143-0.414-0.949-0.092-1.187l0.873-0.142
		c1.697-0.284,1.742-0.712,1.742-4.127V73.947z"/>
	<path fill="#FFFFFF" d="M570.79,73.947c0-1.851,0-2.088-1.239-2.941l-0.413-0.285c-0.184-0.189-0.184-0.711,0.045-0.853
		c1.057-0.38,3.673-1.614,4.59-2.325c0.184,0,0.413,0.096,0.505,0.333c-0.092,1.09-0.092,1.802-0.092,2.229
		c0,0.285,0.184,0.522,0.505,0.522c1.929-1.232,4.084-2.418,6.427-2.418c3.809,0,5.369,2.704,5.369,5.882v8.159
		c0,3.416,0.09,3.89,1.741,4.127l1.013,0.142c0.319,0.237,0.227,1.043-0.095,1.187c-1.374-0.095-2.707-0.143-4.311-0.143
		c-1.654,0-3.032,0.048-4.271,0.143c-0.321-0.143-0.413-0.949-0.092-1.187l0.873-0.142c1.699-0.284,1.742-0.712,1.742-4.127V75.18
		c0-2.704-1.189-4.697-4.313-4.697c-1.743,0-3.258,0.759-3.9,1.661c-0.597,0.807-0.688,1.47-0.688,2.846v7.257
		c0,3.416,0.092,3.843,1.743,4.127l0.829,0.142c0.317,0.237,0.227,1.043-0.096,1.187c-1.238-0.095-2.568-0.143-4.175-0.143
		c-1.653,0-3.028,0.048-4.313,0.143c-0.321-0.143-0.413-0.949-0.092-1.187l0.963-0.142c1.699-0.237,1.745-0.712,1.745-4.127V73.947z
		"/>
	<path fill="#FFFFFF" d="M261.556,137.294c-0.396,0-0.475,0.084-0.634,0.502l-3.726,9.623c-0.713,1.755-1.029,3.512-1.029,4.35
		c0,1.254,0.633,2.009,2.773,2.009h1.031c0.872,0,1.031,0.334,1.031,0.751c0,0.588-0.396,0.752-1.11,0.752
		c-2.298,0-5.548-0.25-7.767-0.25c-0.713,0-4.439,0.25-8.084,0.25c-0.872,0-1.268-0.164-1.268-0.752
		c0-0.417,0.237-0.751,0.792-0.751c0.634,0,1.427-0.085,2.061-0.085c3.17-0.502,4.359-2.678,5.786-6.273l18.229-44.429
		c0.792-2.008,1.347-2.845,2.061-2.845c1.029,0,1.347,0.669,2.06,2.259c1.665,3.932,13.316,32.714,17.755,43.506
		c2.695,6.443,4.676,7.362,5.944,7.615c1.03,0.167,1.822,0.252,2.616,0.252c0.634,0,0.951,0.25,0.951,0.751
		c0,0.588-0.396,0.752-3.012,0.752c-2.457,0-7.53,0-13.395-0.164c-1.269-0.086-2.061-0.086-2.061-0.588
		c0-0.417,0.158-0.669,0.872-0.751c0.475-0.085,0.95-0.755,0.634-1.591l-5.389-14.391c-0.16-0.418-0.397-0.502-0.714-0.502H261.556z
		 M276.456,133.361c0.316,0,0.396-0.169,0.316-0.419l-6.578-17.821c-0.078-0.251-0.158-0.669-0.316-0.669
		c-0.238,0-0.317,0.418-0.397,0.669l-6.736,17.737c-0.158,0.334,0,0.503,0.238,0.503H276.456z"/>
	<path fill="#FFFFFF" d="M308.641,122.066c0-10.793,0-12.801-0.079-15.06c-0.159-2.426-0.792-3.18-3.013-3.849
		c-0.554-0.167-1.743-0.25-2.773-0.25c-0.713,0-1.189-0.251-1.189-0.753c0-0.501,0.554-0.669,1.585-0.669
		c3.646,0,8.084,0.167,10.066,0.167c2.852,0,8.402-0.167,11.571-0.167c8.718,0,11.888,3.012,12.999,4.016
		c1.505,1.506,3.487,4.686,3.487,8.535c0,10.04-7.609,17.235-17.515,17.235c-0.317,0-1.743,0-2.062-0.085
		c-0.395,0-0.871-0.25-0.871-0.752c0-0.586,0.793-0.922,2.298-0.922c3.883,0,9.353-4.266,9.353-11.544
		c0-2.343-0.239-7.028-4.122-10.542c-2.537-2.343-5.389-2.677-6.975-2.677c-1.03,0-2.377,0.083-3.011,0.334
		c-0.397,0.168-0.556,0.586-0.556,1.339v28.196c0,6.526,0,12.133,0.317,15.227c0.239,2.008,0.634,3.348,2.696,3.683
		c1.03,0.167,2.535,0.252,3.566,0.252c0.792,0,1.11,0.417,1.11,0.751c0,0.502-0.556,0.752-1.27,0.752
		c-4.675,0-9.589-0.25-11.413-0.25c-1.585,0-6.022,0.25-8.797,0.25c-0.872,0-1.347-0.25-1.347-0.752
		c0-0.334,0.238-0.751,1.109-0.751c1.03,0,1.823-0.085,2.457-0.252c1.427-0.335,1.823-1.675,2.061-3.765
		c0.317-3.012,0.317-8.618,0.317-15.145V122.066z"/>
	<path fill="#FFFFFF" d="M358.896,137.294c-0.397,0-0.476,0.084-0.635,0.502l-3.725,9.623c-0.714,1.755-1.031,3.512-1.031,4.35
		c0,1.254,0.634,2.009,2.774,2.009h1.031c0.871,0,1.031,0.334,1.031,0.751c0,0.588-0.396,0.752-1.11,0.752
		c-2.298,0-5.548-0.25-7.768-0.25c-0.713,0-4.438,0.25-8.083,0.25c-0.872,0-1.268-0.164-1.268-0.752
		c0-0.417,0.238-0.751,0.792-0.751c0.634,0,1.426-0.085,2.061-0.085c3.169-0.502,4.359-2.678,5.785-6.273l18.23-44.429
		c0.792-2.008,1.347-2.845,2.06-2.845c1.03,0,1.348,0.669,2.061,2.259c1.665,3.932,13.315,32.714,17.754,43.506
		c2.695,6.443,4.676,7.362,5.944,7.615c1.03,0.167,1.822,0.252,2.617,0.252c0.633,0,0.95,0.25,0.95,0.751
		c0,0.588-0.396,0.752-3.012,0.752c-2.458,0-7.53,0-13.395-0.164c-1.269-0.086-2.062-0.086-2.062-0.588
		c0-0.417,0.158-0.669,0.873-0.751c0.474-0.085,0.951-0.755,0.634-1.591l-5.39-14.391c-0.159-0.418-0.397-0.502-0.714-0.502H358.896
		z M373.796,133.361c0.317,0,0.396-0.169,0.317-0.419l-6.578-17.821c-0.079-0.251-0.158-0.669-0.317-0.669
		c-0.238,0-0.317,0.418-0.397,0.669l-6.736,17.737c-0.16,0.334,0,0.503,0.237,0.503H373.796z"/>
	<path fill="#FFFFFF" d="M410.34,145.575c0.159,5.523,1.029,7.197,2.376,7.697c1.189,0.42,2.538,0.505,3.647,0.505
		c0.79,0,1.188,0.334,1.188,0.751c0,0.588-0.634,0.752-1.587,0.752c-4.517,0-7.765-0.25-9.033-0.25c-0.633,0-3.965,0.25-7.529,0.25
		c-0.953,0-1.587-0.082-1.587-0.752c0-0.417,0.477-0.751,1.109-0.751c0.952,0,2.22-0.085,3.171-0.335
		c1.824-0.504,2.061-2.428,2.141-8.619l0.635-42.168c0-1.423,0.475-2.427,1.189-2.427c0.871,0,1.822,1.088,3.01,2.342
		c0.873,0.921,11.334,12.216,21.479,22.674c4.758,4.936,14.028,14.976,15.061,15.98h0.316l-0.713-31.626
		c-0.079-4.35-0.713-5.605-2.378-6.275c-1.03-0.418-2.694-0.418-3.646-0.418c-0.871,0-1.109-0.335-1.109-0.753
		c0-0.585,0.713-0.669,1.743-0.669c3.647,0,7.37,0.167,8.878,0.167c0.793,0,3.408-0.167,6.815-0.167
		c0.951,0,1.586,0.083,1.586,0.669c0,0.418-0.396,0.753-1.189,0.753c-0.713,0-1.268,0-2.14,0.25
		c-1.903,0.586-2.457,1.841-2.536,5.857l-0.794,44.846c0,1.591-0.552,2.26-1.107,2.26c-1.189,0-2.143-0.753-2.855-1.508
		c-4.359-4.266-13.077-13.052-20.368-20.497c-7.608-7.696-14.979-16.315-16.326-17.571h-0.239L410.34,145.575z"/>
	<path fill="#FFFFFF" d="M472.643,122.066c0-10.793,0-12.801-0.077-15.06c-0.159-2.426-0.793-3.18-3.013-3.849
		c-0.555-0.167-1.745-0.25-2.775-0.25c-0.712,0-1.188-0.251-1.188-0.753c0-0.501,0.556-0.669,1.586-0.669
		c3.645,0,8.084,0.167,10.065,0.167c2.22,0,17.676,0.083,19.023,0c1.267-0.084,2.376-0.335,2.932-0.419
		c0.396-0.083,0.793-0.334,1.109-0.334c0.396,0,0.476,0.334,0.476,0.669c0,0.502-0.397,1.339-0.555,4.602
		c-0.08,0.753-0.237,3.848-0.396,4.685c-0.081,0.335-0.239,1.171-0.795,1.171c-0.475,0-0.552-0.334-0.552-0.919
		c0-0.502-0.081-1.758-0.478-2.594c-0.553-1.255-1.108-2.259-4.596-2.594c-1.19-0.167-9.512-0.334-10.938-0.334
		c-0.318,0-0.478,0.251-0.478,0.669v17.569c0,0.419,0.08,0.754,0.478,0.754c1.585,0,10.62,0,12.204-0.168
		c1.665-0.167,2.616-0.417,3.329-1.087c0.555-0.504,0.793-0.921,1.11-0.921c0.316,0,0.554,0.335,0.554,0.752
		c0,0.419-0.158,1.589-0.554,5.189c-0.158,1.421-0.317,4.267-0.317,4.769c0,0.586-0.078,1.59-0.712,1.59
		c-0.478,0-0.634-0.252-0.634-0.586c-0.081-0.753-0.081-1.674-0.24-2.595c-0.396-1.421-1.268-2.509-3.884-2.76
		c-1.267-0.168-9.192-0.336-10.938-0.336c-0.316,0-0.396,0.336-0.396,0.753v5.689c0,2.428-0.079,8.451,0,10.545
		c0.159,4.851,2.3,5.939,9.434,5.939c1.822,0,4.754-0.086,6.577-0.921c1.743-0.839,2.536-2.342,3.012-5.271
		c0.159-0.753,0.318-1.087,0.793-1.087c0.556,0,0.633,0.92,0.633,1.674c0,1.59-0.556,6.441-0.951,7.863
		c-0.475,1.842-1.109,1.842-3.725,1.842c-5.229,0-9.43-0.084-12.84-0.252c-3.407-0.082-6.023-0.168-8.082-0.168
		c-0.794,0-2.299,0.086-3.966,0.086c-1.663,0.082-3.405,0.164-4.832,0.164c-0.873,0-1.348-0.25-1.348-0.752
		c0-0.334,0.237-0.751,1.107-0.751c1.031,0,1.824-0.085,2.458-0.252c1.427-0.335,1.824-1.675,2.061-3.765
		c0.316-3.012,0.316-8.618,0.316-15.145V122.066z"/>
	<path fill="#FFFFFF" d="M514.497,154.361c-1.109-0.502-1.347-0.836-1.347-2.427c0-3.847,0.315-8.282,0.396-9.453
		c0-1.088,0.316-1.842,0.871-1.842c0.634,0,0.715,0.67,0.715,1.172c0,0.921,0.235,2.425,0.633,3.682
		c1.504,5.271,6.736,7.027,11.096,7.027c6.022,0,9.67-4.016,9.67-9.036c0-3.095-0.712-6.19-6.895-10.04l-4.044-2.51
		c-8.242-5.104-10.937-9.873-10.937-16.148c0-8.701,7.926-14.307,17.595-14.307c4.518,0,8.084,0.669,9.908,1.172
		c0.633,0.167,0.952,0.418,0.952,0.919c0,0.921-0.241,2.929-0.241,8.535c0,1.505-0.314,2.259-0.87,2.259
		c-0.475,0-0.713-0.418-0.713-1.255c0-0.669-0.318-2.845-1.823-4.686c-1.031-1.338-3.25-3.346-7.769-3.346
		c-4.991,0-9.511,2.761-9.511,7.613c0,3.18,1.11,5.69,7.371,9.371l2.854,1.674c9.194,5.354,12.048,10.793,12.048,17.235
		c0,5.271-1.901,9.538-6.976,13.302c-3.329,2.514-7.926,2.93-11.651,2.93C521.789,156.202,517.509,155.786,514.497,154.361z"/>
	<path fill="#FFFFFF" d="M561.105,122.066c0-10.793,0-12.801-0.079-15.06c-0.157-2.426-0.792-3.18-3.012-3.849
		c-0.555-0.167-1.744-0.25-2.774-0.25c-0.712,0-1.189-0.251-1.189-0.753c0-0.501,0.555-0.669,1.586-0.669
		c3.647,0,8.085,0.167,10.066,0.167c2.219,0,17.674,0.083,19.022,0c1.268-0.084,2.377-0.335,2.933-0.419
		c0.396-0.083,0.792-0.334,1.109-0.334c0.396,0,0.474,0.334,0.474,0.669c0,0.502-0.395,1.339-0.555,4.602
		c-0.078,0.753-0.236,3.848-0.396,4.685c-0.077,0.335-0.237,1.171-0.793,1.171c-0.474,0-0.553-0.334-0.553-0.919
		c0-0.502-0.081-1.758-0.478-2.594c-0.553-1.255-1.109-2.259-4.597-2.594c-1.188-0.167-9.51-0.334-10.937-0.334
		c-0.317,0-0.478,0.251-0.478,0.669v17.569c0,0.419,0.082,0.754,0.478,0.754c1.587,0,10.62,0,12.205-0.168
		c1.665-0.167,2.616-0.417,3.328-1.087c0.557-0.504,0.794-0.921,1.11-0.921s0.555,0.335,0.555,0.752
		c0,0.419-0.157,1.589-0.555,5.189c-0.159,1.421-0.316,4.267-0.316,4.769c0,0.586-0.078,1.59-0.713,1.59
		c-0.478,0-0.634-0.252-0.634-0.586c-0.081-0.753-0.081-1.674-0.24-2.595c-0.396-1.421-1.269-2.509-3.882-2.76
		c-1.269-0.168-9.194-0.336-10.938-0.336c-0.315,0-0.397,0.336-0.397,0.753v5.689c0,2.428-0.078,8.451,0,10.545
		c0.16,4.851,2.3,5.939,9.435,5.939c1.821,0,4.754-0.086,6.576-0.921c1.746-0.839,2.538-2.342,3.013-5.271
		c0.159-0.753,0.316-1.087,0.791-1.087c0.557,0,0.635,0.92,0.635,1.674c0,1.59-0.556,6.441-0.951,7.863
		c-0.475,1.842-1.108,1.842-3.725,1.842c-5.231,0-9.431-0.084-12.84-0.252c-3.407-0.082-6.024-0.168-8.084-0.168
		c-0.792,0-2.298,0.086-3.965,0.086c-1.663,0.082-3.406,0.164-4.832,0.164c-0.873,0-1.349-0.25-1.349-0.752
		c0-0.334,0.239-0.751,1.109-0.751c1.031,0,1.823-0.085,2.458-0.252c1.428-0.335,1.823-1.675,2.061-3.765
		c0.316-3.012,0.316-8.618,0.316-15.145V122.066z"/>
	<path fill="#FFFFFF" d="M217.223,91.849c0-20.373,0-24.126-0.248-28.415c-0.248-4.558-1.236-6.702-5.316-7.641
		c-0.989-0.267-3.092-0.401-4.823-0.401c-1.359,0-2.101-0.268-2.101-1.207c0-0.939,0.865-1.206,2.719-1.206
		c6.553,0,14.341,0.402,17.557,0.402c2.967,0,10.756-0.402,15.578-0.402c1.732,0,2.597,0.267,2.597,1.206
		c0,0.938-0.742,1.207-2.226,1.207c-1.361,0-2.102,0.134-3.585,0.401c-3.339,0.67-4.328,2.949-4.574,7.641
		c-0.248,4.289-0.248,8.042-0.248,28.415v24.797c0,5.764,0.371,12.196,0.371,18.9c0,7.639-0.494,16.217-2.967,23.725
		c-2.597,8.175-9.15,17.422-21.019,25.331c-1.606,1.072-3.585,2.145-6.181,3.484c-0.866,0.537-1.854,0.804-2.474,0.804
		c-0.493,0-0.989-0.401-0.989-1.072c0-0.669,0.619-1.206,2.72-2.412c1.608-0.938,3.462-2.413,5.935-5.094
		c9.397-10.32,9.274-23.723,9.274-49.994V91.849z"/>
	<path fill="#FFFFFF" d="M317.985,179.672c-1.352,2.98-2.596,6.094-2.623,7.017c0,0.368,0.297,0.975,0.297,1.66
		c0,0.924-0.432,1.241-0.838,1.241c-1.296,0-2.703-2.268-2.703-6.78c0-3.85,0.947-7.173,1.459-9.68
		c0.083-0.368,0.108-0.738,0.108-1.106c0-0.265-0.026-0.501-0.026-0.738c-0.056-0.924-0.785-1.794-1.326-1.847l-0.026-0.186
		c0.188-0.209,0.594-0.264,0.946-0.264c1.865,0,3.027,1.741,3.027,2.796c0,0.792-0.325,1.162-0.541,1.608
		c-1.919,4.485-1.919,7.492-1.919,8.652c0,1.371,0.135,2.295,0.324,2.717l0.217-0.053c0.566-0.844,2.188-3.641,3.082-5.275
		L317.985,179.672z M323.309,179.171c-1.271,1.345-2.055,2.742-2.055,4.035c0,2.083,1.595,2.848,5.163,2.848
		c2.189,0,3.892-0.263,4.514-0.5c1.567,0.264,2.188,0.818,2.188,1.503c0,0.817-1.27,1.003-5.891,1.003
		c-4.92,0-7.352-1.292-7.352-4.38c0-1.739,1.271-3.454,2.918-4.903L323.309,179.171z M320.388,172.523
		c0.758,0.187,1.839,0.213,2.65,0.213c1.351,0,3.973-0.45,5.27-0.978c0.46-0.184,1.027-0.579,1.271-0.579
		c1.271,0,2.433,0.5,2.433,1.239c0,0.606-0.946,0.844-2,1.081c-1.918,0.396-4.406,0.687-5.758,0.687c-1.27,0-2.81-0.158-4.001-1.268
		L320.388,172.523z"/>
	<path fill="#FFFFFF" d="M347.674,186.635c0,0.711,0.459,1.318,0.459,1.847c0,0.606-0.459,0.977-1,0.977
		c-1.351,0-2.837-2.19-2.837-6.489c0-5.592,2.026-9.231,2.026-11.552c0-1.134-0.432-1.82-1.297-1.926l-0.027-0.132
		c0.271-0.265,0.675-0.423,1.135-0.423c1.108,0,2.703,1.479,2.703,2.561c0,0.711-0.432,1.106-0.811,1.896
		c-0.918,2.032-2.162,5.645-2.162,8.759c0,2.188,0.297,3.058,0.568,3.058s1.378-2.32,2.351-4.536l0.406,0.158
		c-1.135,3.482-1.514,5.092-1.514,5.75V186.635z M362.485,174.424c0.703,0.421,1.298,0.633,1.756,0.658
		c0.866,0.053,1.595,0.238,1.595,0.845c0,0.555-0.54,0.844-1.135,1.055c-1.081,0.423-2.811,0.792-4.325,1.055
		c0,2.005,0.244,3.904,0.46,5.75c3.189,1.083,4.947,3.086,4.947,4.035c0,0.714-0.784,0.871-0.893,0.871
		c-0.351,0-0.702-0.289-1.351-0.977c-0.623-0.632-1.595-1.422-2.568-1.925c0.135,2.453-1.244,3.825-4.594,3.825
		c-2.973,0-4.974-1.188-5-3.402c0.026-1.82,2.027-3.113,4.946-3.113c0.946,0,1.892,0.105,2.675,0.264
		c-0.081-1.107-0.297-4.063-0.324-5.116c-1.244,0.132-2.459,0.21-3.459,0.21c-2.379,0-3.298-0.948-3.298-1.926
		c0-0.579,0.324-1.371,0.946-1.977l0.46,0.289c-0.487,0.423-0.622,0.765-0.622,1.135c0,1.002,1.352,1.135,2.406,1.135
		c1.108,0,2.351-0.105,3.486-0.266c-0.027-1.266-0.054-2.531-0.054-3.797c0-0.581-0.026-1.028-0.188-1.398
		c-0.785,0.132-2.135,0.211-3,0.211c-1.298,0-2.46-0.659-2.839-1.581l0.271-0.37c0.352,0.448,1.216,0.686,2.081,0.686
		c1.325,0,6.325-0.475,6.838-1.635c1.433,0.051,2.433,0.606,2.433,1.239c0,0.369-0.405,0.554-0.919,0.687
		c-0.785,0.237-2.19,0.475-3.433,0.633c0.406,0.236,0.703,0.553,0.703,1.37c0,0.528-0.135,3.061-0.135,3.64
		c0.893-0.184,2.514-0.499,2.514-1.002c0-0.21-0.244-0.448-0.703-0.737L362.485,174.424z M359.107,185.633
		c0-0.29-0.027-0.581-0.054-0.844c-0.892-0.344-1.893-0.581-2.892-0.581c-2,0-3.487,0.714-3.487,1.9
		c0,1.292,1.298,1.978,3.406,1.978C358.54,188.086,359.107,186.978,359.107,185.633z"/>
	<path fill="#FFFFFF" d="M380.5,182.072c1.568-1.769,3.784-3.481,6.164-3.508c1.919,0,3.541,1.186,3.541,3.93
		c0,1.056-0.109,2.242-0.109,3.034c0,1.661,1.189,2.32,2.73,2.32c3.108,0,5.189-2.242,6.648-6.277l0.485,0.132
		c-1.106,5.274-3.566,8.203-7.459,8.203c-2.891,0-4.513-1.478-4.513-4.036c0-0.87,0.108-2.32,0.108-3.007
		c0-2.56-0.406-3.322-2.135-3.322c-1.838,0-4.297,2.162-5.676,4.721c-0.811,1.45-1.244,3.271-1.541,4.378
		c-0.244,0.95-0.729,1.239-1.379,1.239c-0.513,0-1.243-0.421-1.243-1.344c0-0.793,0.325-1.451,0.569-1.979
		c0.594-1.002,1.567-3.429,2.865-6.252c1.621-3.455,4.026-8.148,4.405-9.389c0.081-0.237,0.108-0.449,0.108-0.632
		c0-0.95-1.053-1.057-1.838-1.003l-0.054-0.08c0.242-0.553,0.974-1.001,1.729-1.001c1.513,0,3.244,0.737,3.244,2.029
		c0,0.633-0.811,0.977-1.433,1.9c-1.784,2.664-4.108,7.042-5.298,9.891L380.5,182.072z"/>
	<path fill="#FFFFFF" d="M414.813,177.983c-1.434,1.505-2.297,3.271-2.297,4.826c0,2.296,1.892,4.168,6.619,4.168
		c3.299,0,5.624-0.316,6.38-0.845c1.839,0.265,2.731,0.793,2.731,1.559c0,1.186-3.568,1.317-8.812,1.317
		c-6.028,0-8.243-2.611-8.243-5.301c0-1.873,0.756-3.903,3.27-6.095L414.813,177.983z M421.598,172.814
		c-2.054,0.291-4.865,0.923-6.353,0.923c-1.812,0-2.919-1.582-2.919-2.373c0-0.237,0.083-0.475,0.19-0.634l0.188,0.026
		c0.189,0.502,1.055,1.16,3.001,1.16c2.322,0,6.647-0.87,7.486-1.292c1.945,0.265,2.893,0.976,2.893,1.924
		c0,0.503-0.812,0.794-1.541,0.845c-1.756,0.079-5.081,1.505-7.379,2.744l-0.325-0.396c1.082-0.844,3.569-2.109,4.647-2.795
		L421.598,172.814z M425.76,167.724c2.296,0.792,3.839,2.215,3.839,3.323c0,0.58-0.434,0.977-0.838,0.977
		c-0.354,0-0.649-0.238-0.812-0.659c-0.325-0.898-0.975-2.27-2.514-3.271L425.76,167.724z M428.949,166.325
		c2.27,0.766,3.892,2.138,3.892,3.271c0,0.554-0.378,0.976-0.811,0.976c-0.351,0-0.649-0.236-0.784-0.634
		c-0.379-0.924-1.082-2.268-2.622-3.244L428.949,166.325z"/>
	<path fill="#FFFFFF" d="M459.208,174.924c0.244-0.396,0.975-0.633,1.512-0.633c1.65,0,3.136,1.477,3.136,2.295
		s-0.756,1.027-2,1.346c-1.296,0.316-4.271,1.477-6.513,2.505c0.053,0.316,0.08,0.766,0.08,1.135c0,2.98-0.595,4.088-1.539,4.088
		c-0.569,0-0.92-0.421-0.92-1.214c0-0.131,0-0.289,0.029-0.446c0.242-1.979,0.27-2.19,0.242-2.744
		c-2.379,1.239-4.38,2.716-4.38,4.773c0,1.608,1.621,2.216,4.702,2.216c2.488,0,4.704-0.185,5.164-0.607
		c1.755,0.212,2.81,0.581,2.81,1.214c0,0.579-0.296,0.845-1.377,1.028c-1.189,0.237-4.056,0.316-5.543,0.316
		c-5.405,0-7.297-1.423-7.297-3.798c0-2.585,3.162-4.932,5.865-6.382c0-0.186-0.027-0.37-0.027-0.554
		c-0.108-1.819-0.946-2.453-1.945-2.453c-2.324,0-5.162,2.874-7.433,6.145c-0.648,0.976-1.055,1.452-1.595,1.452
		c-0.486,0-1-0.477-1-1.293c0-0.766,0.621-1.214,1.458-1.925c2.246-1.874,4.489-5.383,5.325-7.836
		c-0.7,0.081-1.538,0.106-2.025,0.106c-1.514,0-2.406-0.502-2.839-1.029c-0.324-0.368-0.702-1.028-0.839-1.607l0.271-0.212
		c0.677,1.002,1.624,1.503,3.324,1.53c0.623,0,1.864-0.079,2.622-0.211c0.352-1.057,0.515-1.846,0.515-2.479
		c0-0.686-0.703-0.976-1.406-0.976c-0.217,0-0.433,0.025-0.62,0.078l-0.057-0.025c0.084-0.555,0.811-1.188,1.813-1.188
		c1.567,0,2.919,0.712,2.919,1.426c0,0.554-0.404,0.712-0.623,1.265c-0.188,0.475-0.403,1.081-0.621,1.583
		c0.243-0.026,5-0.685,5.433-2.031c1.623,0.028,2.947,0.211,2.947,1.109c0,0.527-0.864,0.844-1.703,1.081
		c-1.677,0.474-5.081,1.159-7.324,1.423c-0.757,1.846-1.785,3.615-2.596,4.723l0.135,0.025c1.785-1.609,3.299-2.108,4.381-2.108
		c1.539,0,2.919,0.737,3.377,3.005c2.648-1.292,5.758-2.557,5.758-3.191c0-0.446-0.487-0.712-1.055-0.712
		c-0.135,0-0.271,0.026-0.405,0.055L459.208,174.924z"/>
	<path fill="#FFFFFF" d="M481.682,168.727c0.188-0.555,0.864-1.108,1.73-1.108c1.647,0,3.217,0.765,3.217,1.556
		c0,0.423-0.433,0.606-0.541,1.242c-0.055,0.287-0.055,0.843-0.107,1.555c1.134-0.079,5.08-0.554,5.322-1.531l0.299-0.078
		c1.001,0.291,2.81,0.185,2.81,1.106c0,0.661-1.025,0.924-2.512,1.242c-1.516,0.315-4.435,0.684-6.003,0.79
		c-0.025,0.633,0,3.772,0.029,4.299c0.432,0,4.62-0.315,4.62-1.002c0-0.157-0.106-0.368-0.351-0.526l0.325-0.266
		c0.595,0.344,0.757,0.527,1.351,0.527c0.731,0.027,1.784,0.159,1.784,0.714c0,0.79-0.298,1.397-7.675,1.977
		c0.053,1.558,0.136,2.93,0.269,3.746l0.083,0.844c2.539,0.633,5.161,1.794,6.433,2.77c0.836,0.634,1.188,1.214,1.188,1.925
		c0,0.528-0.461,0.923-0.973,0.923c-0.515,0-1.081-0.184-1.758-0.923c-1.053-1.161-2.648-2.162-4.729-2.9
		c0.025,0.422,0.052,1.028,0.052,1.398c0,2.163-1.513,3.244-5.134,3.244c-3.678,0-5.622-1.689-5.622-3.64
		c0-2.11,2.812-3.324,5.918-3.324c0.838,0,1.919,0.079,2.759,0.212c0-0.291-0.243-3.481-0.271-4.142
		c-1.028,0.079-2.622,0.133-3.839,0.133c-2.783,0-3.92-0.791-3.92-1.979c0-0.845,1.026-1.794,2.54-2.479l0.271,0.342
		c-1.16,0.581-1.674,1.239-1.674,1.795c0,0.687,0.863,1.028,2.647,1.028c1.19,0,2.893-0.105,3.92-0.212l-0.08-4.378
		c-1.434,0.079-3.435,0.186-4.407,0.186c-2.594,0-3.864-0.528-4.783-2.294l0.352-0.37c0.81,0.869,2.324,1.265,3.783,1.265
		c1.244,0,3.757-0.079,5-0.21v-1.32c-0.025-1.397-0.053-2.055-1.595-2.055c-0.188,0-0.405,0-0.648,0.05L481.682,168.727z
		 M484.493,184.869c-0.973-0.264-2.162-0.45-3.108-0.45c-2.569,0-4.188,0.844-4.188,2.033c0,1.396,1.647,2.055,4.054,2.055
		c2.433,0,3.269-0.633,3.243-2.162C484.493,186.133,484.519,185.105,484.493,184.869z"/>
	<path fill="#FFFFFF" d="M518.696,170.336c2,0,2.704,0.367,2.704,0.896c0,0.633-0.596,0.924-2.109,1.45
		c-1.322,0.448-4.053,1.188-5.757,1.505c-1.054,3.269-3.567,8.599-5.217,10.998c-0.242,0.369-0.674,0.66-0.972,0.66
		c-0.324,0-1.026-0.291-1.026-1.239c0-0.424,0.08-1.083,0.514-1.452c1.73-1.425,4.053-5.565,4.893-8.704
		c-1.138,0.133-1.595,0.157-2.164,0.157c-1.297,0-2.135-0.289-2.621-0.895c-0.244-0.265-0.514-0.819-0.567-1.268l0.351-0.263
		c0.541,0.817,1.298,1.081,2.406,1.081c0.757,0,2.025-0.106,2.973-0.29c0.216-0.977,0.46-2.163,0.46-3.06
		c0-0.633-0.109-1.057-1.188-1.057c-0.189,0-0.433,0.028-0.702,0.107l-0.108-0.186c0.242-0.659,1.054-1.107,1.864-1.107
		c1.377,0,2.864,0.686,2.864,1.344c0,0.635-0.486,0.688-0.757,1.821c-0.107,0.474-0.378,1.188-0.568,1.713
		c0.919-0.183,2.649-0.685,3.271-1.052c0.675-0.37,0.945-0.74,1.056-1.161H518.696z M518.4,176.005
		c2.161-1.266,4.108-1.688,5.783-1.688c2.056,0,4.298,0.659,4.298,2.057c0,0.237,0,0.581-0.838,0.581
		c-0.243,0-0.46-0.026-0.676-0.079c-0.407-0.132-1.217-0.29-1.892-0.29c-0.188,0-0.404,0.025-0.567,0.054
		c-2.677,0.527-2.92,1.846-2.92,3.586c0,0.606,0,1.213,0.405,3.087c0.027,0.21,0.108,0.554,0.137,0.737
		c1.594,0.528,3.352,1.293,4.542,2.189c0.971,0.713,1.213,1.452,1.213,2.031c0,0.527-0.593,0.844-1.135,0.844
		c-0.512,0-1.675-1.872-4.46-3.164c0.028,0.158,0.028,0.369,0.028,0.605c0,1.478,0,3.771-4.837,3.771
		c-3.028,0-5.138-1.45-5.138-3.56c0-2.136,2.488-3.376,5.218-3.376c0.782,0,1.919,0.131,2.648,0.316
		c-0.08-0.845-0.271-2.111-0.271-2.928v-0.079c0-2.321,1.054-3.853,4.38-4.748v-0.132c-0.407-0.079-0.92-0.158-1.515-0.158
		c-1.136,0-2.567,0.237-4.217,0.869L518.4,176.005z M520.319,185.131c-0.894-0.368-2.162-0.605-3.135-0.605
		c-1.946,0-3.542,0.843-3.542,2.057c0,1.371,1.299,2.083,3.704,2.083c2.243,0,3.054-0.763,3.054-1.846
		C520.4,186.688,520.4,186.239,520.319,185.131z"/>
	<path fill="#FFFFFF" d="M542.091,186.926c0,0.711,0.461,1.318,0.461,1.847c0,0.606-0.461,0.977-1.001,0.977
		c-1.352,0-2.838-2.19-2.838-6.489c0-5.593,2.027-9.231,2.027-11.555c0-1.133-0.434-1.817-1.299-1.925l-0.026-0.131
		c0.271-0.265,0.676-0.423,1.136-0.423c1.107,0,2.702,1.477,2.702,2.559c0,0.714-0.433,1.107-0.811,1.899
		c-0.919,2.031-2.163,5.645-2.163,8.757c0,2.19,0.298,3.06,0.567,3.06c0.271,0,1.38-2.321,2.353-4.536l0.404,0.157
		c-1.134,3.483-1.513,5.092-1.513,5.75V186.926z M556.631,174.819c0.703,0.448,1.3,0.659,1.786,0.686
		c0.861,0.025,1.594,0.211,1.594,0.844c0,0.554-0.569,0.844-1.136,1.056c-1.08,0.395-2.811,0.791-4.352,1.054
		c0.026,1.083,0.162,2.955,0.244,3.745c0.055,0.554,0.162,1.268,0.215,1.926c3.244,1.081,4.974,3.139,4.974,4.036
		c0,0.712-0.785,0.87-0.892,0.87c-0.351,0-0.704-0.291-1.353-0.976c-0.647-0.659-1.594-1.425-2.593-1.927
		c0.161,2.453-1.217,3.825-4.596,3.825c-2.945,0-4.972-1.186-4.972-3.402c0-1.819,1.972-3.164,4.892-3.164
		c0.945,0,1.944,0.131,2.729,0.288c-0.027-0.183-0.298-4.378-0.351-5.036c-1.161,0.158-2.351,0.212-3.543,0.212
		c-2.485,0-3.214-1.082-3.214-1.874c0-0.607,0.351-1.423,0.973-2.029l0.459,0.315c-0.513,0.422-0.621,0.737-0.621,1.081
		c0,0.897,1.027,1.161,2.403,1.161c1.11,0,2.354-0.105,3.488-0.264c-0.054-1.663-0.054-1.874-0.054-3.588
		c0-0.659-0.027-1.159-0.19-1.608c-0.784,0.132-2.134,0.211-2.999,0.211c-1.323,0-2.46-0.634-2.865-1.583l0.271-0.342
		c0.377,0.421,1.243,0.658,2.107,0.658c1.323,0,5.893-0.422,6.487-1.581c1.405,0.051,2.296,0.633,2.296,1.212
		c0,0.369-0.377,0.555-0.891,0.685c-0.757,0.266-1.757,0.476-2.975,0.607c0.354,0.265,0.704,0.554,0.704,1.372
		c0,0.263-0.027,0.528-0.056,0.765c-0.024,0.553-0.08,1.451-0.08,2.901c0.784-0.158,2.515-0.502,2.515-0.976
		c0-0.212-0.244-0.475-0.729-0.765L556.631,174.819z M553.254,185.896c0-0.289,0-0.553-0.027-0.79
		c-0.919-0.316-1.947-0.58-2.945-0.58c-2.001,0-3.461,0.713-3.461,1.898c0,1.292,1.298,2.005,3.404,2.005
		C552.767,188.429,553.254,187.268,553.254,185.896z M557.227,167.064c1.944,0.686,3.27,2.216,3.27,3.322
		c0,0.503-0.162,1.03-0.729,1.03c-0.406,0-0.73-0.265-0.811-0.765c-0.136-0.765-0.705-2.244-2.056-3.167L557.227,167.064z
		 M560.011,166.142c1.946,0.686,3.243,2.215,3.243,3.297c0,0.5-0.162,1.056-0.729,1.056c-0.406,0-0.677-0.266-0.758-0.766
		c-0.135-0.765-0.703-2.243-2.082-3.166L560.011,166.142z"/>
	<path fill="#FFFFFF" d="M575.483,175.637c-0.135,0.264-0.216,0.528-0.216,0.737c0,0.581,0.46,0.925,1.136,0.925
		c1.407,0,4.516-2.322,7.84-2.322c4.026,0,4.863,2.716,4.863,5.909c0,4.403-3.622,8.52-10.972,10.103l-0.299-0.528
		c6.243-2.189,8.813-6.252,8.813-9.759c0-2.585-0.327-4.643-2.729-4.643c-1.837,0-3.865,1.188-5.463,2.639
		c-0.62,0.579-0.995,1.133-1.862,1.133c-1.136,0-2.488-1.266-2.488-2.505c0-0.793,0.485-1.53,1.026-1.899L575.483,175.637z
		 M579.459,172.182c1.024-0.555,3.052-1.609,3.323-1.742c0.054-0.053,0.11-0.078,0.11-0.104c0-0.053-0.084-0.079-0.19-0.107
		c-2.76-0.078-4.866-0.133-5.649-2.583l0.351-0.318c0.811,1.136,2.46,1.188,3.622,1.188c0.892,0,1.811-0.053,2.487-0.053
		c1.621,0,3.079,0.711,3.079,1.794c0,0.737-1.052,0.87-1.972,0.923c-0.892,0-2.703,0.579-4.892,1.449L579.459,172.182z"/>
</g>
</svg>
