<?xml version="1.0" encoding="utf-8"?>
<!-- Generator: Adobe Illustrator 16.0.0, SVG Export Plug-In . SVG Version: 6.00 Build 0)  -->
<!DOCTYPE svg PUBLIC "-//W3C//DTD SVG 1.1//EN" "http://www.w3.org/Graphics/SVG/1.1/DTD/svg11.dtd">
<svg version="1.1" id="Other" xmlns="http://www.w3.org/2000/svg" xmlns:xlink="http://www.w3.org/1999/xlink" x="0px" y="0px"
	 width="300px" height="300px" viewBox="0 0 300 300" enable-background="new 0 0 300 300" xml:space="preserve">
<g>
	<path fill="none" d="M59.506,87.455c0-2.245-0.099-2.971-1.584-3.103l-1.584-0.132c-0.264-0.132-0.297-0.594-0.033-0.727
		c2.772-0.495,4.588-1.353,5.446-1.914c0.132,0,0.264,0.066,0.33,0.165c-0.066,0.594-0.132,2.244-0.132,4.125v12.806
		c0,2.541,0.066,3.102,1.419,3.201l1.386,0.099c0.198,0.198,0.165,0.726-0.066,0.825c-1.287-0.066-2.772-0.099-3.928-0.099
		c-1.188,0-2.673,0.033-3.96,0.099c-0.231-0.099-0.264-0.627-0.066-0.825l1.353-0.099c1.386-0.099,1.419-0.66,1.419-3.201V87.455z"
		/>
</g>
<g>
	<path fill="none" d="M165.498,46.97c1.518,0,2.508-0.198,3.102-0.726c0.628-0.561,0.859-0.99,1.057-1.353c0.231-0.099,0.594,0,0.727,0.198
		c-0.43,1.65-1.023,3.367-1.519,4.027c-1.353-0.066-2.739-0.099-4.257-0.099h-4.787c-1.848,0-2.937,0.033-3.662,0.099
		c-0.066-0.033-0.232-0.165-0.232-0.429c0-0.099,0.166-0.231,0.363-0.363c1.519-0.99,2.607-2.112,5.051-4.753
		c2.178-2.343,4.719-5.545,4.719-9.076c0-3.003-1.451-4.819-4.125-4.819c-1.98,0-3.4,1.353-4.291,3.3
		c-0.297,0.165-0.792,0-0.792-0.429c1.056-2.905,3.663-4.654,6.634-4.654c3.301,0,5.445,2.211,5.445,5.38
		c0,2.046-0.957,4.291-3.531,7.261l-2.013,2.311c-2.706,3.103-3.003,3.63-3.003,3.829c0,0.231,0.164,0.297,1.022,0.297H165.498z"/>
</g>
<path id="L3-Path" opacity="0.7" fill="#006837" d="M134.229,216.726c-7.282,6.768-29.003,16.608-46.938,16.608
	c-11.956,0-26.768-8.413-26.789-24.574c-0.037-29.852,26.96-58.083,52.916-67.529c5.693-2.072,17.528-5.436,23.246-6.864
	c12.87-3.213,22.363-3.32,29.004-3.32c0.223-3.543,0-6.864-0.884-9.962l0.664-0.668c5.978,2.217,10.406,6.201,12.842,11.516
	c34.98,4.646,62.213,24.574,62.213,54.241c0,33.21-26.123,55.35-100.073,61.773l-1.109-3.767
	c44.723-6.418,67.086-33.433,67.309-59.333c0-19.929-7.527-36.531-25.906-43.394c0,1.548,0.224,3.097,0.224,4.646
	c-0.002,11.651-12.64,37.512-25.907,51.367C150.138,202.588,139.424,211.904,134.229,216.726z M143.085,175.989
	c9.937-9.547,17.934-25.684,21.257-37.417c-1.108,0-2.214-0.222-3.1-0.222c-8.413,0-17.03,1.031-24.355,4.206
	c-6.065,2.628-17.828,8.734-23.468,12.179c-13.285,8.12-26.347,26.791-26.347,38.966c0,8.635,2.658,10.629,13.062,10.629
	c5.315,0,14.638-4.021,20.369-8.412C126.479,191.339,137.657,181.208,143.085,175.989z"/>
<path id="L2-Path" opacity="0.7" fill="#ED1C24" d="M138.216,111.564c-0.666,6.418-1.109,14.614-1.552,22.803l0.223,8.19
	c0,7.31,0,20.591,6.198,33.433l11.955,21.478c0.443,1.771,0.886,3.766,0.886,5.535c0,5.534-3.097,16.827-13.061,16.827
	c-2.877,0-5.978-1.108-8.635-3.104c0,0-10.926-15.241-13.728-20.808c-4.685-9.324-7.083-27.53-7.083-41.183V141.23v-28.118
	l0.22-21.92c0.223-5.978,0.443-15.053,0.443-18.154c0-9.078-2.655-11.513-15.939-10.85l-0.443-0.886
	c3.321-6.864,12.842-12.399,20.369-12.399c21.034,0,31.438,8.192,31.438,15.278c0,3.764-4.648,8.413-5.535,12.398
	c-0.886,3.765-1.549,7.085-2.435,11.291L138.216,111.564z"/>
<path id="L1-Path" opacity="0.7" fill="#0000FF" d="M179.175,71.488c0.234-0.021,0.663-0.441,0.663-0.441
	c11.733,1.77,32.987,6.419,32.987,17.489c0,9.521-10.624,12.398-33.209,17.049c-13.063,2.658-27.453,4.648-41.4,5.979l-24.797,1.549
	c-2.658,0-5.315,0.223-7.97,0.223c-18.157,0-31.219-13.951-32.767-27.235l1.106-0.663c3.543,3.983,13.505,6.198,25.46,6.198
	C111.203,91.636,175.688,88.362,179.175,71.488z"/>
<g>
	<path fill="none" d="M193.761,129.691c0-0.648,0.476-1.265,1.236-1.265s1.173,0.648,1.521,1.167c0.413,0.616,0.793,0.973,1.68,0.973
		c2.061,0,5.674-2.757,5.674-6.356c0-2.854-1.332-5.286-4.088-5.286c-1.554,0-2.695,0.778-3.424,1.589
		c-0.507-0.065-0.887-0.519-0.697-1.135c1.204-0.552,3.803-1.751,5.07-2.821c0.697-0.583,1.681-1.557,1.681-3.113
		c0-1.718-1.173-2.789-2.599-2.789c-1.87,0-3.297,1.2-4.279,2.854c-0.316,0.064-0.665-0.13-0.665-0.454
		c0.982-2.27,3.296-3.924,5.735-3.924c2.6,0,4.406,1.427,4.406,3.729c0,1.329-0.508,2.594-3.391,4.151
		c-0.159,0.324,0,0.454,0.379,0.486c2.409,0.195,4.596,1.914,4.596,4.994c0,2.335-1.108,4.67-3.074,6.42
		c-2.345,2.108-5.07,2.789-6.623,2.789C195.473,131.702,193.761,131.216,193.761,129.691z"/>
</g>
<g id="arrow_3_">
	<g>
		<path fill="none" stroke="#FFFFFF" stroke-width="0.5" stroke-miterlimit="10" d="M97.667,103.127
			c11.814,2.184,64.176-5.875,79.568-13.43"/>
		<g>
			<path fill="#FFFFFF" d="M179.833,88.17c-0.971,1.163-2.053,2.818-2.527,4.187l-0.436-2.491l-1.927-1.636
				C176.363,88.514,178.339,88.418,179.833,88.17z"/>
		</g>
	</g>
</g>
<g id="arrow_2_">
	<g>
		<path fill="none" stroke="#FFFFFF" stroke-width="0.5" stroke-miterlimit="10" d="M130.333,63.666
			c-0.769,6.89-10.203,41.545-5.667,75.333c4.19,31.207,12.917,60.348,18.646,72.641"/>
		<g>
			<path fill="#FFFFFF" d="M144.667,214.333c-1.088-1.054-2.659-2.255-3.989-2.829l2.517-0.25l1.773-1.802
				C144.58,210.848,144.529,212.825,144.667,214.333z"/>
		</g>
	</g>
</g>
<g id="arrow_1_">
	<g>
		<path fill="none" stroke="#FFFFFF" stroke-width="0.5" stroke-miterlimit="10" d="M169.742,124.721
			c11.258,37.612-40.438,105.267-91.076,95.108c-6.043-1.213-10.548-23.854,3.259-40.488"/>
		<g>
			<path fill="#FFFFFF" d="M83.941,177.095c-0.533,1.418-1.01,3.337-1.007,4.786l-1.231-2.209l-2.359-0.909
				C80.778,178.563,82.612,177.821,83.941,177.095z"/>
		</g>
	</g>
</g>
<g id="arrow">
	<g>
		<path fill="none" stroke="#FFFFFF" stroke-width="0.5" stroke-miterlimit="10" d="M144.667,136.333
			c39.411-6.486,84.761,12.391,76,58.667c-4.503,23.788-38.572,39.971-49.799,44.075"/>
		<g>
			<path fill="#FFFFFF" d="M168,239.999c1.179-0.95,2.564-2.362,3.298-3.612l-0.061,2.528l1.57,1.981
				C171.47,240.34,169.514,240.047,168,239.999z"/>
		</g>
	</g>
</g>
</svg>
