<?xml version="1.0" encoding="utf-8"?>
<!-- Generator: Adobe Illustrator 16.0.0, SVG Export Plug-In . SVG Version: 6.00 Build 0)  -->
<!DOCTYPE svg PUBLIC "-//W3C//DTD SVG 1.1//EN" "http://www.w3.org/Graphics/SVG/1.1/DTD/svg11.dtd">
<svg version="1.1" xmlns="http://www.w3.org/2000/svg" xmlns:xlink="http://www.w3.org/1999/xlink" x="0px" y="0px" width="300px"
	 height="300px" viewBox="0 0 300 300" enable-background="new 0 0 300 300" xml:space="preserve">
<g id="Other">
	<g>
		<path fill="none" d="M33.25,78.493c0-2.245-0.099-2.971-1.584-3.103l-1.584-0.132c-0.264-0.132-0.297-0.594-0.033-0.727
			c2.772-0.495,4.588-1.353,5.446-1.914c0.132,0,0.264,0.066,0.33,0.165c-0.066,0.594-0.132,2.244-0.132,4.125v12.806
			c0,2.541,0.066,3.102,1.419,3.201l1.386,0.099c0.198,0.198,0.165,0.726-0.066,0.825c-1.287-0.066-2.772-0.099-3.928-0.099
			c-1.188,0-2.673,0.033-3.96,0.099c-0.231-0.099-0.264-0.627-0.066-0.825l1.353-0.099c1.386-0.099,1.419-0.66,1.419-3.201V78.493z"
			/>
	</g>
	<g>
		<path fill="none" d="M117.758,34.809c1.518,0,2.508-0.198,3.102-0.726c0.628-0.561,0.859-0.99,1.057-1.353c0.231-0.099,0.594,0,0.727,0.198
			c-0.43,1.65-1.023,3.367-1.519,4.027c-1.353-0.066-2.739-0.099-4.257-0.099h-4.787c-1.848,0-2.937,0.033-3.662,0.099
			c-0.066-0.033-0.232-0.165-0.232-0.429c0-0.099,0.166-0.231,0.363-0.363c1.519-0.99,2.607-2.112,5.051-4.753
			c2.178-2.343,4.719-5.545,4.719-9.076c0-3.003-1.451-4.819-4.125-4.819c-1.98,0-3.4,1.353-4.291,3.3
			c-0.297,0.165-0.792,0-0.792-0.429c1.056-2.905,3.663-4.654,6.634-4.654c3.301,0,5.445,2.211,5.445,5.38
			c0,2.046-0.957,4.291-3.531,7.261l-2.013,2.311c-2.706,3.103-3.003,3.63-3.003,3.829c0,0.231,0.164,0.297,1.022,0.297H117.758z"/>
	</g>
	<g>
		<path fill="none" d="M241.731,71.156c0-0.648,0.476-1.265,1.236-1.265s1.173,0.648,1.521,1.167c0.413,0.616,0.793,0.973,1.68,0.973
			c2.061,0,5.674-2.757,5.674-6.356c0-2.854-1.332-5.286-4.088-5.286c-1.554,0-2.695,0.778-3.424,1.589
			c-0.507-0.065-0.887-0.519-0.697-1.135c1.204-0.552,3.803-1.751,5.07-2.821c0.697-0.583,1.681-1.557,1.681-3.113
			c0-1.718-1.173-2.789-2.599-2.789c-1.87,0-3.297,1.2-4.279,2.854c-0.316,0.064-0.665-0.13-0.665-0.454
			c0.982-2.27,3.296-3.924,5.735-3.924c2.6,0,4.406,1.427,4.406,3.729c0,1.329-0.508,2.594-3.391,4.151
			c-0.159,0.324,0,0.454,0.379,0.486c2.409,0.195,4.596,1.914,4.596,4.994c0,2.335-1.108,4.67-3.074,6.42
			c-2.345,2.108-5.07,2.789-6.623,2.789C243.443,73.167,241.731,72.681,241.731,71.156z"/>
	</g>
</g>
<g id="CenterL1">
	<path id="L1-Path" opacity="0.7" fill="#0000FF" d="M153.667,73.167l-0.509,0.237c-3.301,5.687-9.651,12.557-22.098,16.585
		l-26.415,5.923c-8.382,2.606-22.353,4.028-29.718,4.028c-11.43,0-21.082-4.976-24.893-10.425l-0.762,0.474
		c-1.27,29.615,21.336,34.117,34.036,34.117c4.063,0,27.099-1.658,32.94-2.605c1.052-0.269,3.371-0.804,4.106-0.971
		c-0.024-0.15-0.047-0.454,0.023-0.005c0.254-0.058,0.302-0.067,0,0.002c17.525-4.028,42.177-11.109,52.591-17.743
		c5.842-3.554,8.636-9.24,8.636-12.083C181.606,82.881,173.986,76.01,153.667,73.167z"/>
	<g id="arrow_1_">
		<g>
			<path fill="none" stroke="#FFFFFF" stroke-width="0.5" stroke-miterlimit="10" d="M68.167,109.782
				c60.923,2.516,81.924-13.184,87.679-19.379"/>
			<g>
				<path fill="#FFFFFF" d="M157.667,88c-0.46,1.443-0.839,3.384-0.762,4.831l-1.343-2.143l-2.401-0.788
					C154.584,89.627,156.377,88.793,157.667,88z"/>
			</g>
		</g>
	</g>
</g>
<g id="CenterL3">
	<path id="L3-Path" opacity="0.7" fill="#006837" d="M225.04,80.038c-19.05,0-32.258,12.32-38.607,22.034l2.794,2.132
		c2.794-3.317,8.89-5.686,12.954-5.686c8.382,0,19.05,2.606,19.05,9.477c0,1.896-7.62,9.24-15.748,14.453l1.016,1.658
		c15.748-4.027,22.606-5.686,27.432-5.686c4.826,0,6.858,0.711,14.479,0.711c6.096,0,12.191-5.212,12.191-11.373
		C260.6,98.518,252.218,80.038,225.04,80.038z"/>
	<g id="arrow_5_">
		<g>
			<path fill="none" stroke="#FFFFFF" stroke-width="0.5" stroke-miterlimit="10" d="M207.333,91.074
				c21.002-1.608,29.282,7.548,32.109,12.325"/>
			<g>
				<path fill="#FFFFFF" d="M240.709,106.136c-1.089-1.053-2.66-2.253-3.991-2.827l2.517-0.251l1.772-1.803
					C240.62,102.651,240.57,104.628,240.709,106.136z"/>
			</g>
		</g>
	</g>
</g>
<g id="CenterL2">
	<path id="L2-Path" opacity="0.7" fill="#ED1C24" d="M188.719,141.164c-19.05,0-38.862,5.686-60.706,16.822
		c0-6.16,1.713-53.717,2.032-53.782c0-0.541,2.54-26.772,3.556-30.326c0.762-3.08,4.318-8.766,4.318-10.898
		c0-7.108-11.43-16.348-28.702-16.348c-16.002,0-25.4,10.662-25.654,13.504l0.508,0.711c1.524-0.237,3.048-0.237,4.572-0.237
		c9.398,0,16.002,4.027,16.002,23.929v11.372l-0.508,26.062l-0.762,48.57c-14.478,9.24-33.782,18.717-41.402,18.717
		c-7.112,0-8.636-1.658-14.478-1.658c-4.318,0-9.652,2.842-9.652,12.793c0,12.557,11.684,21.561,19.558,21.561
		c6.096,0,14.224-0.947,21.59-9.477c9.906,7.581,16.256,16.82,17.271,23.691c1.27,9.004,3.048,16.348,12.192,16.348
		c16.764,0,23.876-11.846,23.876-31.51c0-15.875-3.556-22.508-3.556-48.807c16.002-13.031,36.322-21.797,55.372-21.797
		c19.812,0,33.273,13.268,33.273,31.037c0,18.953-10.922,32.695-31.241,32.695c-12.7,0-22.606-5.449-22.606-23.219
		c0-4.265,0.509-9.24,1.778-14.926l-1.778-0.475c-6.857,7.582-11.684,23.219-11.684,36.25c0,20.375,22.098,32.221,42.672,32.221
		c30.733,0,57.657-18.717,57.657-52.359C252.218,164.856,231.898,141.164,188.719,141.164z M102.359,209.871
		c0,6.397-1.27,6.397-2.54,6.397c-3.81,0-13.208-4.265-18.034-6.87c5.334-4.738,11.684-11.609,21.082-19.665
		C102.613,197.314,102.359,204.896,102.359,209.871z"/>
	<g id="arrow_4_">
		<g>
			<path fill="none" stroke="#FFFFFF" stroke-miterlimit="10" d="M116.779,64.224C116.123,179.904,115.5,198.27,115.5,198.27v8.859
				c4,64.204-24.378-2.462-51.961-4.504c-8.249-0.61,57.928-33.866,72.254-41.21"/>
			<g>
				<path fill="#FFFFFF" d="M138.667,160c-1.008,1.13-2.144,2.749-2.663,4.103l-0.353-2.504l-1.874-1.698
					C135.188,160.23,137.166,160.199,138.667,160z"/>
			</g>
		</g>
	</g>
	<g id="arrow_2_">
		<g>
			<path fill="none" stroke="#FFFFFF" stroke-width="0.5" stroke-miterlimit="10" d="M185,147.333
				c64.873-5.146,51.708,73.673,20.667,78.667c-20.028,3.222-36.684-0.742-42.587-13.519"/>
			<g>
				<path fill="#FFFFFF" d="M162,209.667c1.015,1.124,2.502,2.428,3.791,3.09l-2.527,0.081l-1.891,1.68
					C161.854,213.15,162.037,211.181,162,209.667z"/>
			</g>
		</g>
	</g>
</g>
</svg>
